<?xml version="1.0" standalone="no"?><!-- Generator: Gravit.io --><svg xmlns="http://www.w3.org/2000/svg" xmlns:xlink="http://www.w3.org/1999/xlink" style="isolation:isolate" viewBox="0 0 301.575 281.85" width="301.575" height="281.85"><defs><clipPath id="_clipPath_GeqKaC6OqJSHywkroqFvJM9YoTHye8Gf"><rect width="301.575" height="281.85"/></clipPath></defs><g clip-path="url(#_clipPath_GeqKaC6OqJSHywkroqFvJM9YoTHye8Gf)"><path d=" M 84.075 1.5 Q 112.325 17.125 115.825 20.75 C 119.325 24.375 123.875 36 124.125 37.75 Q 124.375 39.5 144.525 98.25 L 153.325 113.45 L 249.525 119.75 Q 264.7 80.85 265.325 76.1 Q 265.95 71.35 265.95 50.35 Q 278.825 65.85 278.825 70.1 Q 278.825 74.35 277.95 133.35 L 300.075 192.1 L 292.95 188.85 L 292.825 223.85 L 288.075 213.6 L 292.45 251.975 L 274.825 241.85 Q 287.825 262.35 286.825 269.85 Q 285.825 277.35 268.575 280.35 Q 231.825 277.85 227.325 266.85 Q 222.825 255.85 239.825 253.6 L 230.325 249.975 L 227.825 259.6 L 214.225 244.05 L 210.475 254.8 Q 209.225 249.55 206.725 248.8 C 204.225 248.05 197.225 252.55 194.975 252.55 Q 192.725 252.55 190.225 250.55 L 183.725 259.55 L 169.35 246.3 L 168.975 258.8 Q 153.275 251.1 148.525 252.475 Q 143.775 253.85 151.275 261.85 Q 151.525 273.5 124.15 276.375 Q 96.775 279.25 90.025 265.25 Q 80.025 262.25 80.025 255.375 Q 80.025 248.5 92.025 246.25 Q 84.925 215.25 84.425 198.75 Q 83.925 182.25 90.425 150.25 Q 87.425 138.25 83.925 134.75 C 80.425 131.25 78.575 137.25 73.95 137 Q 69.325 136.75 66.45 134.375 L 66.45 150.25 L 59.325 142.5 L 55.45 152.25 L 51.325 144.75 L 50.825 152.75 L 36.825 143.75 L 34.025 152 L 5.325 112.75 Q 5.025 110.7 5.275 108.825 Q 5.525 106.95 6.837 104.325 Q 2.025 102.45 1.65 101.075 Q 1.275 99.7 1.837 95.2 Q 4.775 89.35 6.775 87.85 C 8.775 86.35 13.463 83.225 16.4 84.225 Q 19.338 85.225 22.088 83.1 L 56.325 68.9 Q 61.825 64.9 61.825 60.275 C 61.825 55.65 59.7 50.4 58.075 49.275 C 56.45 48.15 53.075 44.15 50.45 43.65 Q 47.825 43.15 52.575 42.275 L 55.95 41.275 L 46.95 38.65 Q 49.325 36.025 52.325 35.4 Q 55.325 34.775 67.325 38.275 Q 74.375 39.65 79.25 39.275 Q 84.125 38.9 99.125 36.15 L 84.075 1.5 Z " fill="rgb(0,0,0)" vector-effect="non-scaling-stroke" stroke-width="1" stroke="rgb(0,0,0)" stroke-linejoin="miter" stroke-linecap="square" stroke-miterlimit="3"/><path d=" M 82.637 134.304 C 84.05 134.64 86.575 139.725 86.75 140.256 C 86.925 140.788 88.718 145.359 88.734 145.742 Q 88.751 146.125 151.511 114.335 L 154.386 113.242 Q 154.894 118.085 159.969 119.335 Q 165.044 120.585 167.074 113.71 Q 174.178 115.585 175.87 111.367 Q 177.562 107.148 174.009 103.71 Q 178.915 99.023 176.039 95.117 Q 173.163 91.21 167.412 93.867 Q 166.397 88.085 161.999 87.46 Q 157.6 86.835 154.556 93.71 Q 150.496 90.273 146.943 93.71 Q 143.391 97.148 148.127 103.242 Q 81.224 133.967 82.637 134.304 Z " fill="rgb(152,0,0)"/><path d=" M 156.879 103.557 C 156.879 101.143 158.84 99.182 161.254 99.182 C 163.669 99.182 165.629 101.143 165.629 103.557 C 165.629 105.972 163.669 107.932 161.254 107.932 C 158.84 107.932 156.879 105.972 156.879 103.557 Z " fill="rgb(255,0,0)"/></g></svg>